<svg width="317" height="165" viewBox="0 0 317 165" fill="none" xmlns="http://www.w3.org/2000/svg">
<path fill-rule="evenodd" clip-rule="evenodd" d="M303.23 17.85C310.537 17.85 316.46 23.7732 316.46 31.08C316.46 38.3867 310.537 44.31 303.23 44.31H227.63C234.937 44.31 240.86 50.2332 240.86 57.54C240.86 64.8467 234.937 70.77 227.63 70.77H269.21C276.517 70.77 282.44 76.6932 282.44 84C282.44 91.3067 276.517 97.23 269.21 97.23H249.981C240.769 97.23 233.3 103.153 233.3 110.46C233.3 115.331 237.08 119.741 244.64 123.69C251.947 123.69 257.87 129.613 257.87 136.92C257.87 144.227 251.947 150.15 244.64 150.15H87.7701C80.4633 150.15 74.5401 144.227 74.5401 136.92C74.5401 129.613 80.4633 123.69 87.7701 123.69H14.0601C6.75335 123.69 0.830078 117.767 0.830078 110.46C0.830078 103.153 6.75335 97.23 14.0601 97.23H89.6601C96.9668 97.23 102.89 91.3067 102.89 84C102.89 76.6932 96.9668 70.77 89.6601 70.77H42.4101C35.1034 70.77 29.1801 64.8467 29.1801 57.54C29.1801 50.2332 35.1034 44.31 42.4101 44.31H118.01C110.703 44.31 104.78 38.3867 104.78 31.08C104.78 23.7732 110.703 17.85 118.01 17.85H303.23ZM303.23 70.77C310.537 70.77 316.46 76.6932 316.46 84C316.46 91.3067 310.537 97.23 303.23 97.23C295.923 97.23 290 91.3067 290 84C290 76.6932 295.923 70.77 303.23 70.77Z" fill="#DFE9F7"/>
<path d="M130.295 129.36C165.263 129.36 193.61 101.013 193.61 66.045C193.61 31.0771 165.263 2.72998 130.295 2.72998C95.3271 2.72998 66.98 31.0771 66.98 66.045C66.98 101.013 95.3271 129.36 130.295 129.36Z" fill="#F3F7FF" stroke="#3E5F8A" stroke-width="4.725"/>
<path d="M120.15 115.173C123.474 115.787 126.855 116.106 130.295 116.13C157.956 116.13 180.38 93.7062 180.38 66.045C180.38 38.3838 157.956 15.96 130.295 15.96C123.189 15.96 116.429 17.4398 110.306 20.1079C99.6653 24.7445 90.9482 32.9699 85.6834 43.2552C82.1841 50.0914 80.21 57.8377 80.21 66.045C80.21 73.4916 81.8351 80.5587 84.75 86.9108C86.8311 91.4458 89.5695 95.6164 92.8434 99.3007" stroke="#3E5F8A" stroke-width="4.725" stroke-linecap="round"/>
<path d="M98.7271 104.931C102.787 108.231 107.374 110.908 112.342 112.816" stroke="#3E5F8A" stroke-width="4.725" stroke-linecap="round"/>
<path d="M182.27 116.13L193.61 127.47" stroke="#3E5F8A" stroke-width="4.725"/>
<path fill-rule="evenodd" clip-rule="evenodd" d="M191.777 125.637C188.2 129.214 188.2 135.014 191.777 138.592L212.729 159.543C216.306 163.12 222.106 163.12 225.683 159.543C229.26 155.966 229.26 150.166 225.683 146.588L204.732 125.637C201.154 122.06 195.355 122.06 191.777 125.637Z" fill="#CADFFB" stroke="#3E5F8A" stroke-width="4.725"/>
<path fill-rule="evenodd" clip-rule="evenodd" d="M118.01 44.3101C118.01 66.2303 135.78 84.0001 157.7 84.0001C162.006 84.0001 166.152 83.3144 170.035 82.0461C163.697 97.7726 148.293 108.874 130.295 108.874C106.641 108.874 87.4663 89.6987 87.4663 66.0451C87.4663 44.6116 103.211 26.8555 123.765 23.7111C120.113 29.7179 118.01 36.7684 118.01 44.3101Z" fill="white"/>
<path d="M131.24 31.08C128.833 31.08 126.482 31.3168 124.208 31.7683M117.339 33.8698C104.409 39.3031 95.3301 52.0862 95.3301 66.99" stroke="#3E5F8A" stroke-width="4.725" stroke-linecap="round"/>
<path d="M144.19 91.1392H128.737M156.142 76.44H123.68H156.142ZM169.372 76.44H165.174H169.372Z" stroke="#3E5F8A" stroke-width="4.725" stroke-linecap="round" stroke-linejoin="round"/>
</svg>
