<svg width="113" height="131" viewBox="0 0 113 131" fill="none" xmlns="http://www.w3.org/2000/svg">
<mask id="mask0_768_508" style="mask-type:alpha" maskUnits="userSpaceOnUse" x="0" y="0" width="113" height="131">
<rect width="113" height="131" fill="#D9D9D9"/>
</mask>
<g mask="url(#mask0_768_508)">
<path d="M49.3689 4.54567C45.9083 6.51507 42.6906 8.30543 42.2656 8.54415C41.7799 8.78286 48.8225 13.0797 60.54 19.7041L79.6036 30.4462L79.6643 52.1096C79.6643 64.0453 79.9072 73.7133 80.15 73.5939C80.3929 73.4746 83.6713 71.6842 87.4355 69.5358L94.2353 65.6567V43.8739L94.1745 22.0912L75.4752 11.4684C65.1541 5.67957 56.4722 0.905273 56.2294 0.905273C55.9258 0.905273 52.8295 2.57628 49.3689 4.54567Z" fill="#2F4D74"/>
<path d="M18.2238 22.27L-0.475586 32.8331V41.0091C-0.475586 45.5447 -0.293449 49.2448 -0.111312 49.2448C0.0708242 49.2448 8.57054 44.5301 18.7095 38.7413C28.9091 33.0121 37.591 28.4169 37.9553 28.5362C38.3802 28.7153 46.9407 33.5493 57.0796 39.2784L75.4147 49.7222V41.3075L75.354 32.8331L56.6546 22.2103C46.3335 16.4215 37.6517 11.6472 37.4089 11.6472C37.1053 11.6472 28.4842 16.4215 18.2238 22.27Z" fill="#2F4D74"/>
<path d="M98.4852 46.7979V68.1629L79.6644 78.7857C69.3433 84.6342 60.8436 89.5875 60.8436 89.8262C60.8436 90.0649 64.0006 92.094 67.8862 94.2424L74.9288 98.3006L86.8284 91.5569C93.4461 87.7971 101.946 82.9632 105.771 80.8147L112.753 76.8163L112.935 55.0335L113.056 33.3105L106.074 29.3717C102.249 27.1636 98.9709 25.3732 98.7887 25.3732C98.6066 25.3732 98.4852 34.9815 98.4852 46.7979Z" fill="#2F4D74"/>
<path d="M18.5273 43.456L-0.475586 54.1981V97.883L6.68846 101.881L13.7918 105.88L13.9739 84.2165L14.0954 62.6128L32.9161 51.9304C43.2372 46.0818 51.5548 41.1285 51.4334 40.8898C51.2512 40.6511 48.6406 39.0398 45.5443 37.3091C42.448 35.5784 39.3516 33.8477 38.6838 33.43C37.591 32.7735 35.3446 33.8477 18.5273 43.456Z" fill="#2F4D74"/>
<path d="M18.406 65.0598L18.3453 86.8425V108.685L37.2268 119.367C47.6086 125.276 56.2297 130.11 56.4118 130.05C57.3225 129.871 70.5578 122.292 70.5578 121.934C70.5578 121.755 62.1188 116.801 51.737 110.893L32.9769 100.27L32.6126 57.0629L18.406 65.0598Z" fill="#2F4D74"/>
<path d="M36.5588 89.6471L36.6195 97.8828L55.2582 108.446C65.5186 114.235 74.2004 119.069 74.6254 119.188C74.9897 119.307 83.7929 114.533 94.1747 108.625L113.056 97.8828V89.6471C113.056 85.1712 112.935 81.4711 112.813 81.4711C112.692 81.4711 104.253 86.1858 94.114 91.9746C84.0358 97.7634 75.4147 102.538 75.0504 102.538C74.6861 102.538 66.065 97.8231 55.8046 92.0343C45.5442 86.1858 37.0445 81.4711 36.8624 81.4711C36.6803 81.4711 36.5588 85.1712 36.5588 89.6471Z" fill="#2F4D74"/>
<path d="M175.196 100.817V61.023H168.119V50.077H175.196V44.1436C175.196 38.0057 176.757 33.6409 179.879 31.0493C183.071 28.4577 187.372 27.162 192.784 27.162H198.508V38.3126H194.865C192.576 38.3126 190.945 38.7559 189.974 39.6425C189.003 40.5291 188.517 42.0294 188.517 44.1436V50.077H221.82V100.817H208.499V61.023H188.517V100.817H175.196ZM215.263 42.8137C212.835 42.8137 210.823 42.0976 209.227 40.6655C207.701 39.2333 206.938 37.426 206.938 35.2436C206.938 33.0612 207.701 31.288 209.227 29.924C210.823 28.4919 212.835 27.7758 215.263 27.7758C217.692 27.7758 219.669 28.4919 221.195 29.924C222.791 31.288 223.589 33.0612 223.589 35.2436C223.589 37.426 222.791 39.2333 221.195 40.6655C219.669 42.0976 217.692 42.8137 215.263 42.8137Z" fill="#2F4D74"/>
<path d="M235.916 100.817V50.077H247.676L248.716 58.6701C250.312 55.6693 252.602 53.2824 255.585 51.5092C258.638 49.736 262.211 48.8494 266.304 48.8494C272.687 48.8494 277.648 50.8272 281.186 54.7827C284.725 58.7383 286.494 64.5353 286.494 72.1736V100.817H273.173V73.4012C273.173 69.0364 272.271 65.6947 270.467 63.3759C268.663 61.0571 265.853 59.8977 262.037 59.8977C258.291 59.8977 255.203 61.1935 252.775 63.7851C250.416 66.3767 249.237 69.9912 249.237 74.6288V100.817H235.916Z" fill="#2F4D74"/>
<path d="M299.232 100.817V50.077H310.992L312.033 58.6701C313.629 55.6693 315.918 53.2824 318.902 51.5092C321.954 49.736 325.527 48.8494 329.621 48.8494C336.004 48.8494 340.965 50.8272 344.503 54.7827C348.041 58.7383 349.811 64.5353 349.811 72.1736V100.817H336.49V73.4012C336.49 69.0364 335.588 65.6947 333.784 63.3759C331.98 61.0571 329.17 59.8977 325.354 59.8977C321.607 59.8977 318.52 61.1935 316.092 63.7851C313.733 66.3767 312.553 69.9912 312.553 74.6288V100.817H299.232Z" fill="#2F4D74"/>
<path d="M383.883 102.045C379.304 102.045 375.28 101.329 371.811 99.8967C368.342 98.3963 365.567 96.3503 363.485 93.7587C361.404 91.1672 360.155 88.1664 359.739 84.7564H373.164C373.58 86.7342 374.69 88.4392 376.494 89.8714C378.368 91.2354 380.761 91.9174 383.675 91.9174C386.589 91.9174 388.705 91.3377 390.023 90.1783C391.411 89.0189 392.105 87.689 392.105 86.1886C392.105 84.0062 391.134 82.5399 389.191 81.7897C387.248 80.9714 384.542 80.1871 381.073 79.4369C378.853 78.9595 376.598 78.3798 374.309 77.6978C372.019 77.0158 369.903 76.1633 367.96 75.1403C366.087 74.0491 364.561 72.6851 363.381 71.0483C362.202 69.3433 361.612 67.2633 361.612 64.8081C361.612 60.3069 363.416 56.5218 367.024 53.4529C370.701 50.3839 375.835 48.8494 382.426 48.8494C388.532 48.8494 393.388 50.2475 396.996 53.0437C400.673 55.8398 402.859 59.6931 403.553 64.6035H390.96C390.197 60.8525 387.318 58.977 382.322 58.977C379.825 58.977 377.882 59.4544 376.494 60.4092C375.176 61.364 374.517 62.5575 374.517 63.9897C374.517 65.4901 375.523 66.6836 377.535 67.5702C379.547 68.4567 382.218 69.2751 385.548 70.0253C389.156 70.8437 392.452 71.7644 395.435 72.7874C398.488 73.7422 400.916 75.2085 402.72 77.1863C404.524 79.0959 405.426 81.8579 405.426 85.4725C405.495 88.6097 404.663 91.44 402.928 93.9633C401.194 96.4867 398.696 98.4645 395.435 99.8967C392.174 101.329 388.324 102.045 383.883 102.045Z" fill="#2F4D74"/>
<path d="M438.6 100.817C433.188 100.817 428.852 99.5216 425.591 96.93C422.33 94.3384 420.7 89.735 420.7 83.1196V61.023H411.854V50.077H420.7L422.261 36.4712H434.021V50.077H447.967V61.023H434.021V83.2219C434.021 85.6771 434.541 87.3821 435.582 88.3369C436.692 89.2235 438.565 89.6668 441.202 89.6668H447.654V100.817H438.6Z" fill="#2F4D74"/>
<path d="M482.851 102.045C477.856 102.045 473.346 100.92 469.322 98.6691C465.367 96.4185 462.211 93.3155 459.852 89.3599C457.562 85.3361 456.417 80.6986 456.417 75.4472C456.417 70.1958 457.597 65.5924 459.956 61.6368C462.315 57.613 465.472 54.4759 469.426 52.2253C473.45 49.9747 477.96 48.8494 482.955 48.8494C487.881 48.8494 492.322 49.9747 496.277 52.2253C500.301 54.4759 503.457 57.613 505.747 61.6368C508.106 65.5924 509.285 70.1958 509.285 75.4472C509.285 80.6986 508.106 85.3361 505.747 89.3599C503.457 93.3155 500.301 96.4185 496.277 98.6691C492.252 100.92 487.777 102.045 482.851 102.045ZM482.851 90.6898C486.32 90.6898 489.339 89.4281 491.906 86.9047C494.473 84.3131 495.756 80.494 495.756 75.4472C495.756 70.4004 494.473 66.6154 491.906 64.092C489.339 61.5004 486.355 60.2046 482.955 60.2046C479.417 60.2046 476.364 61.5004 473.797 64.092C471.3 66.6154 470.051 70.4004 470.051 75.4472C470.051 80.494 471.3 84.3131 473.797 86.9047C476.364 89.4281 479.382 90.6898 482.851 90.6898Z" fill="#2F4D74"/>
<path d="M546.485 102.045C541.212 102.045 536.564 100.92 532.54 98.6691C528.515 96.4185 525.324 93.2814 522.965 89.2576C520.675 85.2338 519.531 80.6304 519.531 75.4472C519.531 70.264 520.675 65.6606 522.965 61.6368C525.324 57.613 528.515 54.4759 532.54 52.2253C536.564 49.9747 541.212 48.8494 546.485 48.8494C553.076 48.8494 558.627 50.5544 563.136 53.9644C567.646 57.3061 570.525 61.9437 571.774 67.877H557.725C557.031 65.4219 555.643 63.5123 553.562 62.1483C551.55 60.7161 549.156 60 546.381 60C542.704 60 539.582 61.364 537.015 64.092C534.448 66.82 533.164 70.605 533.164 75.4472C533.164 80.2894 534.448 84.0744 537.015 86.8024C539.582 89.5304 542.704 90.8944 546.381 90.8944C549.156 90.8944 551.55 90.2124 553.562 88.8484C555.643 87.4844 557.031 85.5407 557.725 83.0173H571.774C570.525 88.7461 567.646 93.3496 563.136 96.8277C558.627 100.306 553.076 102.045 546.485 102.045Z" fill="#2F4D74"/>
<path d="M583.598 100.817V27.162H596.919V70.6391L615.235 50.077H631.054L609.928 73.1966L634.488 100.817H617.837L596.919 75.3449V100.817H583.598Z" fill="#2F4D74"/>
</g>
</svg>
