<svg width="222" height="46" viewBox="0 0 222 46" fill="none" xmlns="http://www.w3.org/2000/svg">
<path d="M17.4269 1.29667C16.217 1.99814 15.092 2.63585 14.9434 2.72088C14.7736 2.8059 17.2359 4.3364 21.3326 6.69591L27.9978 10.5221L28.019 18.2384C28.019 22.4897 28.1039 25.9334 28.1888 25.8908C28.2737 25.8483 29.42 25.2106 30.736 24.4454L33.1134 23.0637V15.3049L33.0922 7.54618L26.5544 3.76246C22.9459 1.70055 19.9104 0 19.8255 0C19.7194 0 18.6369 0.595192 17.4269 1.29667Z" fill="#2F4D74"/>
<path d="M6.53779 7.60985L0 11.3723V14.2845C0 15.9 0.0636798 17.218 0.12736 17.218C0.191039 17.218 3.16276 15.5387 6.7076 13.4767C10.2737 11.4361 13.3091 9.79931 13.4364 9.84182C13.585 9.90559 16.578 11.6274 20.1228 13.6681L26.5332 17.388V14.3908L26.512 11.3723L19.9742 7.5886C16.3657 5.52668 13.3303 3.82614 13.2454 3.82614C13.1393 3.82614 10.1251 5.52668 6.53779 7.60985Z" fill="#2F4D74"/>
<path d="M34.5993 16.3464V23.9564L28.019 27.7401C24.4105 29.8232 21.4388 31.5876 21.4388 31.6726C21.4388 31.7576 22.5426 32.4804 23.9011 33.2456L26.3634 34.6911L30.5238 32.289C32.8375 30.9499 35.8092 29.2281 37.1465 28.4628L39.5875 27.0386L39.6512 19.2799L39.6937 11.5424L37.2526 10.1394C35.9153 9.3529 34.7691 8.7152 34.7054 8.7152C34.6417 8.7152 34.5993 12.1376 34.5993 16.3464Z" fill="#2F4D74"/>
<path d="M6.64392 15.1561L0 18.9823V34.5423L2.50474 35.9665L4.98825 37.3907L5.05193 29.6745L5.09438 21.9795L11.6746 18.1745C15.2831 16.0914 18.1912 14.327 18.1487 14.242C18.0851 14.157 17.1723 13.5831 16.0898 12.9666C15.0072 12.3502 13.9246 11.7337 13.6911 11.5849C13.3091 11.3511 12.5237 11.7337 6.64392 15.1561Z" fill="#2F4D74"/>
<path d="M6.60149 22.8511L6.58026 30.6098V38.3899L13.1817 42.1948C16.8115 44.2993 19.8256 46.0211 19.8893 45.9998C20.2077 45.936 24.8351 43.2364 24.8351 43.1089C24.8351 43.0451 21.8846 41.2808 18.2549 39.1764L11.6959 35.3926L11.5685 20.0027L6.60149 22.8511Z" fill="#2F4D74"/>
<path d="M12.9482 31.6088L12.9694 34.5422L19.486 38.3047C23.0733 40.3666 26.1087 42.0884 26.2573 42.1309C26.3846 42.1735 29.4625 40.4729 33.0922 38.3685L39.6937 34.5422V31.6088C39.6937 30.0145 39.6512 28.6966 39.6088 28.6966C39.5663 28.6966 36.6158 30.3759 33.071 32.4378C29.5474 34.4997 26.5332 36.2003 26.4059 36.2003C26.2785 36.2003 23.2643 34.521 19.677 32.4591C16.0897 30.3759 13.118 28.6966 13.0543 28.6966C12.9907 28.6966 12.9482 30.0145 12.9482 31.6088Z" fill="#2F4D74"/>
<path d="M61.4194 35.5875V21.4132H58.9451V17.5144H61.4194V15.401C61.4194 13.2147 61.9652 11.66 63.0568 10.737C64.1726 9.81387 65.6765 9.35232 67.5686 9.35232H69.5698V13.324H68.2963C67.4958 13.324 66.9258 13.4819 66.5862 13.7977C66.2466 14.1135 66.0768 14.6479 66.0768 15.401V17.5144H77.7203V35.5875H73.0629V21.4132H66.0768V35.5875H61.4194ZM75.428 14.9273C74.5789 14.9273 73.8755 14.6722 73.3176 14.1621C72.7839 13.652 72.5171 13.0082 72.5171 12.2309C72.5171 11.4536 72.7839 10.822 73.3176 10.3361C73.8755 9.82601 74.5789 9.57095 75.428 9.57095C76.277 9.57095 76.9683 9.82601 77.502 10.3361C78.0599 10.822 78.3388 11.4536 78.3388 12.2309C78.3388 13.0082 78.0599 13.652 77.502 14.1621C76.9683 14.6722 76.277 14.9273 75.428 14.9273Z" fill="#2F4D74"/>
<path d="M82.6486 35.5875V17.5144H86.7602L87.124 20.5752C87.6819 19.5063 88.4824 18.6561 89.5255 18.0245C90.5928 17.3929 91.8421 17.0771 93.2732 17.0771C95.5049 17.0771 97.2393 17.7816 98.4764 19.1905C99.7135 20.5994 100.332 22.6643 100.332 25.3849V35.5875H95.6747V25.8222C95.6747 24.2675 95.3594 23.0772 94.7287 22.2513C94.098 21.4254 93.1156 21.0124 91.7814 21.0124C90.4715 21.0124 89.3921 21.474 88.5431 22.397C87.7183 23.3201 87.306 24.6076 87.306 26.2594V35.5875H82.6486Z" fill="#2F4D74"/>
<path d="M104.786 35.5875V17.5144H108.897L109.261 20.5752C109.819 19.5063 110.62 18.6561 111.663 18.0245C112.73 17.3929 113.979 17.0771 115.41 17.0771C117.642 17.0771 119.376 17.7816 120.614 19.1905C121.851 20.5994 122.469 22.6643 122.469 25.3849V35.5875H117.812V25.8222C117.812 24.2675 117.496 23.0772 116.866 22.2513C116.235 21.4254 115.253 21.0124 113.919 21.0124C112.609 21.0124 111.529 21.474 110.68 22.397C109.855 23.3201 109.443 24.6076 109.443 26.2594V35.5875H104.786Z" fill="#2F4D74"/>
<path d="M134.382 36.0248C132.781 36.0248 131.374 35.7697 130.161 35.2596C128.948 34.7252 127.978 33.9964 127.25 33.0733C126.523 32.1502 126.086 31.0814 125.94 29.8668H130.634C130.78 30.5713 131.168 31.1785 131.799 31.6887C132.453 32.1745 133.29 32.4174 134.309 32.4174C135.328 32.4174 136.068 32.211 136.529 31.798C137.014 31.385 137.256 30.9113 137.256 30.3769C137.256 29.5996 136.917 29.0773 136.238 28.8101C135.558 28.5186 134.612 28.2392 133.399 27.972C132.623 27.802 131.835 27.5955 131.034 27.3526C130.234 27.1097 129.494 26.806 128.815 26.4416C128.16 26.053 127.626 25.5671 127.214 24.9841C126.802 24.3768 126.595 23.6359 126.595 22.7614C126.595 21.1582 127.226 19.81 128.487 18.7168C129.773 17.6237 131.568 17.0771 133.873 17.0771C136.007 17.0771 137.705 17.5751 138.967 18.5711C140.252 19.567 141.016 20.9395 141.259 22.6885H136.856C136.589 21.3525 135.583 20.6845 133.836 20.6845C132.963 20.6845 132.284 20.8545 131.799 21.1946C131.338 21.5347 131.107 21.9598 131.107 22.4699C131.107 23.0043 131.459 23.4295 132.162 23.7452C132.866 24.061 133.8 24.3525 134.964 24.6197C136.225 24.9113 137.378 25.2392 138.421 25.6036C139.488 25.9437 140.337 26.4659 140.968 27.1704C141.598 27.8506 141.914 28.8344 141.914 30.1219C141.938 31.2393 141.647 32.2474 141.041 33.1462C140.434 34.045 139.561 34.7495 138.421 35.2596C137.281 35.7697 135.934 36.0248 134.382 36.0248Z" fill="#2F4D74"/>
<path d="M153.512 35.5875C151.62 35.5875 150.104 35.126 148.964 34.2029C147.824 33.2798 147.254 31.6401 147.254 29.2838V21.4132H144.161V17.5144H147.254L147.8 12.6682H151.911V17.5144H156.787V21.4132H151.911V29.3202C151.911 30.1947 152.093 30.802 152.457 31.1421C152.845 31.4579 153.5 31.6158 154.422 31.6158H156.678V35.5875H153.512Z" fill="#2F4D74"/>
<path d="M168.984 36.0248C167.237 36.0248 165.661 35.624 164.254 34.8223C162.871 34.0207 161.767 32.9154 160.942 31.5065C160.142 30.0733 159.742 28.4214 159.742 26.551C159.742 24.6805 160.154 23.0408 160.979 21.6319C161.804 20.1986 162.907 19.0812 164.29 18.2796C165.697 17.4779 167.274 17.0771 169.02 17.0771C170.742 17.0771 172.295 17.4779 173.678 18.2796C175.084 19.0812 176.188 20.1986 176.989 21.6319C177.813 23.0408 178.226 24.6805 178.226 26.551C178.226 28.4214 177.813 30.0733 176.989 31.5065C176.188 32.9154 175.084 34.0207 173.678 34.8223C172.271 35.624 170.706 36.0248 168.984 36.0248ZM168.984 31.9802C170.197 31.9802 171.252 31.5308 172.149 30.632C173.047 29.7089 173.496 28.3485 173.496 26.551C173.496 24.7534 173.047 23.4052 172.149 22.5064C171.252 21.5833 170.209 21.1217 169.02 21.1217C167.783 21.1217 166.716 21.5833 165.818 22.5064C164.945 23.4052 164.508 24.7534 164.508 26.551C164.508 28.3485 164.945 29.7089 165.818 30.632C166.716 31.5308 167.771 31.9802 168.984 31.9802Z" fill="#2F4D74"/>
<path d="M191.232 36.0248C189.388 36.0248 187.763 35.624 186.356 34.8223C184.949 34.0207 183.833 32.9033 183.009 31.4701C182.208 30.0368 181.808 28.3971 181.808 26.551C181.808 24.7048 182.208 23.0651 183.009 21.6319C183.833 20.1986 184.949 19.0812 186.356 18.2796C187.763 17.4779 189.388 17.0771 191.232 17.0771C193.536 17.0771 195.477 17.6844 197.053 18.899C198.63 20.0893 199.637 21.7412 200.074 23.8546H195.161C194.919 22.98 194.434 22.2999 193.706 21.814C193.003 21.3039 192.166 21.0488 191.195 21.0488C189.91 21.0488 188.818 21.5347 187.921 22.5064C187.023 23.478 186.574 24.8262 186.574 26.551C186.574 28.2757 187.023 29.6239 187.921 30.5955C188.818 31.5672 189.91 32.0531 191.195 32.0531C192.166 32.0531 193.003 31.8101 193.706 31.3243C194.434 30.8385 194.919 30.1461 195.161 29.2473H200.074C199.637 31.2879 198.63 32.9276 197.053 34.1664C195.477 35.4053 193.536 36.0248 191.232 36.0248Z" fill="#2F4D74"/>
<path d="M204.207 35.5875V9.35232H208.865V24.8384L215.269 17.5144H220.799L213.413 25.7493L222 35.5875H216.178L208.865 26.5145V35.5875H204.207Z" fill="#2F4D74"/>
</svg>
