<svg width="703" height="584" viewBox="0 0 703 584" fill="none" xmlns="http://www.w3.org/2000/svg">
<path d="M303.349 23.8577C281.009 37.1101 261.699 48.4693 260.563 49.6052C259.427 50.7411 311.679 82.1682 376.048 119.275L493.805 186.673L494.562 324.119L495.698 461.186L539.241 435.817L582.785 410.07V272.245V134.42L466.164 67.0226C401.795 29.9159 348.407 -0.375214 346.892 0.00341797C345.378 0.00341797 326.067 10.9839 303.349 23.8577Z" fill="#CADFFB"/>
<path d="M110.621 135.177L-5.62136 202.197L-6 254.07C-6 282.847 -5.24272 306.323 -4.48544 306.323C-3.72816 306.323 49.66 276.031 113.65 238.925L230.65 171.906L344.241 237.41C406.717 273.76 460.105 304.051 462.756 305.187C466.542 306.701 467.299 296.099 466.542 254.828L465.406 202.575L348.785 135.177C284.416 98.0708 231.028 67.7796 229.514 68.1583C227.999 68.1583 174.611 98.4494 110.621 135.177Z" fill="#CADFFB"/>
<path d="M610.424 291.177L609.289 428.244L493.046 494.885C429.056 531.991 376.425 562.661 376.425 563.797C376.425 564.933 396.115 577.049 420.347 591.059L464.27 616.807L583.162 548.273L702.055 479.361V342.672V205.983L678.201 192.352C665.327 184.779 644.881 173.041 633.143 166.226L611.182 154.109L610.424 291.177Z" fill="#CADFFB"/>
<path d="M110.621 271.487L-6 338.507V476.71L-5.62136 614.913L38.6795 639.904L82.9803 664.894L84.1162 527.826L84.8735 390.38L201.494 323.361C265.484 286.254 318.115 255.585 318.873 255.206C320.766 253.691 234.436 204.09 230.271 204.09C228.378 204.09 174.611 234.381 110.621 271.487Z" fill="#CADFFB"/>
<path d="M156.814 382.05L113.271 407.04L112.513 545.244L111.377 683.068L229.513 750.845L347.27 819L366.58 808.398C431.706 772.049 438.143 767.884 430.57 762.961C426.784 760.311 373.775 729.641 313.192 694.428L202.251 630.059L201.494 493.37L200.358 356.681L156.814 382.05Z" fill="#CADFFB"/>
<path d="M228.756 563.418V615.671L343.862 682.311C407.474 719.039 460.862 749.709 462.376 750.088C467.299 751.602 698.647 616.428 700.541 611.127C701.677 608.855 701.677 585.379 701.298 558.875L700.162 511.166L582.405 578.943L464.27 647.098L346.513 579.321L228.756 511.545V563.418Z" fill="#CADFFB"/>
</svg>
