<svg width="699" height="587" viewBox="0 0 699 587" fill="none" xmlns="http://www.w3.org/2000/svg">
<mask id="mask0_286_987" style="mask-type:alpha" maskUnits="userSpaceOnUse" x="0" y="0" width="699" height="587">
<rect width="699" height="587" fill="#D9D9D9"/>
</mask>
<g mask="url(#mask0_286_987)">
<path d="M309.349 26.8577C287.009 40.1101 267.699 51.4693 266.563 52.6052C265.427 53.7411 317.679 85.1682 382.048 122.275L499.805 189.673L500.562 327.119L501.698 464.186L545.241 438.817L588.785 413.07V275.245V137.42L472.164 70.0226C407.795 32.9159 354.407 2.62478 352.892 3.00342C351.378 3.00342 332.067 13.984 309.349 26.8577Z" fill="#CADFFB"/>
<path d="M116.621 138.177L0.378639 205.197L0 257.07C0 285.847 0.757279 309.323 1.51456 309.323C2.27184 309.323 55.66 279.031 119.65 241.925L236.65 174.906L350.241 240.41C412.717 276.76 466.105 307.051 468.756 308.187C472.542 309.701 473.299 299.099 472.542 257.828L471.406 205.575L354.785 138.177C290.416 101.071 237.028 70.7797 235.514 71.1583C233.999 71.1583 180.611 101.449 116.621 138.177Z" fill="#CADFFB"/>
<path d="M616.424 294.177L615.289 431.244L499.046 497.885C435.056 534.991 382.425 565.661 382.425 566.797C382.425 567.933 402.115 580.05 426.347 594.059L470.27 619.807L589.162 551.273L708.055 482.361V345.672V208.983L684.201 195.352C671.327 187.779 650.881 176.041 639.143 169.226L617.182 157.109L616.424 294.177Z" fill="#CADFFB"/>
<path d="M116.621 274.487L0 341.507V479.71L0.378639 617.913L44.6795 642.904L88.9803 667.894L90.1162 530.826L90.8735 393.38L207.494 326.361C271.484 289.254 324.115 258.585 324.873 258.206C326.766 256.691 240.436 207.09 236.271 207.09C234.378 207.09 180.611 237.381 116.621 274.487Z" fill="#CADFFB"/>
<path d="M162.814 385.05L119.271 410.04L118.513 548.244L117.377 686.068L235.513 753.845L353.27 822L372.58 811.398C437.706 775.049 444.143 770.884 436.57 765.961C432.784 763.311 379.775 732.641 319.192 697.428L208.251 633.059L207.494 496.37L206.358 359.681L162.814 385.05Z" fill="#CADFFB"/>
<path d="M234.756 566.418V618.671L349.862 685.311C413.474 722.039 466.862 752.709 468.376 753.088C473.299 754.602 704.647 619.428 706.541 614.127C707.677 611.855 707.677 588.379 707.298 561.875L706.162 514.166L588.405 581.943L470.27 650.098L352.513 582.321L234.756 514.545V566.418Z" fill="#CADFFB"/>
</g>
</svg>
