<svg width="22" height="22" viewBox="0 0 22 22" fill="none" xmlns="http://www.w3.org/2000/svg">
<path d="M14.3333 17.25C14.2516 19.3077 12.5368 21.0549 10.2396 20.9987C9.70516 20.9856 9.04459 20.7993 7.72347 20.4266C4.54401 19.5298 1.78395 18.0226 1.12173 14.6462C1 14.0255 1 13.3271 1 11.9303L1 10.0697C1 8.6729 1 7.9745 1.12173 7.35384C1.78395 3.97739 4.54402 2.47018 7.72347 1.57336C9.0446 1.20072 9.70516 1.01439 10.2396 1.00132C12.5368 0.945122 14.2516 2.6923 14.3333 4.75001" stroke="#6A9CDE" stroke-width="1.5" stroke-linecap="round"/>
<path d="M21.0001 11H8.77783M21.0001 11C21.0001 10.222 18.7842 8.76837 18.2223 8.22222M21.0001 11C21.0001 11.778 18.7842 13.2316 18.2223 13.7778" stroke="#6A9CDE" stroke-width="1.5" stroke-linecap="round" stroke-linejoin="round"/>
</svg>
