<svg width="22" height="22" viewBox="0 0 22 22" fill="none" xmlns="http://www.w3.org/2000/svg">
<path d="M5.73633 16.2631L5.73633 12.0526" stroke="#6A9CDE" stroke-width="1.5" stroke-linecap="round"/>
<path d="M11 16.2632L11 5.73688" stroke="#6A9CDE" stroke-width="1.5" stroke-linecap="round"/>
<path d="M16.2637 16.2632L16.2637 9.94739" stroke="#6A9CDE" stroke-width="1.5" stroke-linecap="round"/>
<path d="M1 11C1 6.28596 1 3.92893 2.46447 2.46447C3.92893 1 6.28596 1 11 1C15.714 1 18.0711 1 19.5355 2.46447C21 3.92893 21 6.28596 21 11C21 15.714 21 18.0711 19.5355 19.5355C18.0711 21 15.714 21 11 21C6.28596 21 3.92893 21 2.46447 19.5355C1 18.0711 1 15.714 1 11Z" stroke="#6A9CDE" stroke-width="1.5" stroke-linejoin="round"/>
</svg>
