<svg width="20" height="21" viewBox="0 0 20 21" fill="none" xmlns="http://www.w3.org/2000/svg">
<path d="M1.06658 12.7417C0.865117 14.0235 1.76581 14.9132 2.8686 15.3566C7.09647 17.0566 12.98 17.0566 17.2079 15.3566C18.3107 14.9132 19.2113 14.0235 19.0099 12.7417C18.8861 11.954 18.2739 11.298 17.8203 10.6575C17.2262 9.80818 17.1671 8.88183 17.1671 7.89629C17.1671 4.08757 13.9754 1 10.0382 1C6.10109 1 2.9094 4.08757 2.9094 7.89629C2.90932 8.88183 2.85028 9.80818 2.25618 10.6575C1.8026 11.298 1.19039 11.954 1.06658 12.7417Z" fill="#CADFFB" stroke="#3E5F8A" stroke-width="1.5" stroke-linecap="round" stroke-linejoin="round"/>
<path d="M7.19607 19C7.9503 19.5891 8.9463 19.9474 10.0382 19.9474C11.13 19.9474 12.126 19.5891 12.8803 19" stroke="#3E5F8A" stroke-width="1.5" stroke-linecap="round" stroke-linejoin="round"/>
</svg>
