<svg width="22" height="26" viewBox="0 0 22 26" fill="none" xmlns="http://www.w3.org/2000/svg">
<path d="M6.29688 17.4706H11.0028M6.29688 11.5882H15.7086" stroke="#6A9CDE" stroke-width="1.5" stroke-linecap="round"/>
<path d="M5.71048 2.76468C3.88013 2.81959 2.78885 3.02331 2.03374 3.77912C1 4.81382 1 6.47915 1 9.80981L1 17.464C1 20.7946 1 22.46 2.03374 23.4947C3.06748 24.5294 4.73126 24.5294 8.05882 24.5294L13.9412 24.5294C17.2687 24.5294 18.9325 24.5294 19.9663 23.4947C21 22.46 21 20.7946 21 17.464V9.80981C21 6.47915 21 4.81382 19.9663 3.77912C19.2112 3.02331 18.1199 2.81959 16.2895 2.76468" stroke="#6A9CDE" stroke-width="1.5"/>
<path d="M5.70605 3.05882C5.70605 1.92177 6.62782 1 7.76488 1H14.2355C15.3725 1 16.2943 1.92177 16.2943 3.05882C16.2943 4.19588 15.3725 5.11765 14.2355 5.11765H7.76488C6.62782 5.11765 5.70605 4.19588 5.70605 3.05882Z" fill="#6A9CDE" stroke="#6A9CDE" stroke-width="1.5" stroke-linejoin="round"/>
</svg>
