<svg width="42" height="42" viewBox="0 0 42 42" fill="none" xmlns="http://www.w3.org/2000/svg">
<circle cx="21" cy="21" r="21" fill="#517ab1"/>
<path d="M21 7.625C17.8934 7.625 15.375 10.1434 15.375 13.25C15.375 16.3566 17.8934 18.875 21 18.875C24.1066 18.875 26.625 16.3566 26.625 13.25C26.625 10.1434 24.1066 7.625 21 7.625Z" fill="white"/>
<path d="M15 21.875C11.8934 21.875 9.37501 24.3934 9.37501 27.5V29.2824C9.37501 30.4123 10.1938 31.3756 11.3089 31.5577C17.7272 32.6056 24.2729 32.6056 30.6911 31.5577C31.8062 31.3756 32.625 30.4123 32.625 29.2824V27.5C32.625 24.3934 30.1066 21.875 27 21.875H26.4887C26.212 21.875 25.937 21.9188 25.6739 22.0047L24.3756 22.4286C22.1822 23.1448 19.8178 23.1448 17.6244 22.4286L16.3261 22.0047C16.0631 21.9188 15.7881 21.875 15.5113 21.875H15Z" fill="white"/>
</svg>
