<svg width="22" height="25" viewBox="0 0 22 25" fill="none" xmlns="http://www.w3.org/2000/svg">
<path d="M4.75 23.5L4.75 19.75" stroke="#5783BC" stroke-width="1.5" stroke-linecap="round" stroke-linejoin="round"/>
<path d="M17.25 23.5L17.25 16" stroke="#5783BC" stroke-width="1.5" stroke-linecap="round" stroke-linejoin="round"/>
<path d="M17.25 4.75L17.25 1" stroke="#5783BC" stroke-width="1.5" stroke-linecap="round" stroke-linejoin="round"/>
<path d="M4.75 8.5L4.75 1" stroke="#5783BC" stroke-width="1.5" stroke-linecap="round" stroke-linejoin="round"/>
<path d="M4.75 19.75C3.58515 19.75 3.00272 19.75 2.54329 19.5597C1.93072 19.306 1.44404 18.8193 1.1903 18.2067C1 17.7473 1 17.1649 1 16C1 14.8351 1 14.2527 1.1903 13.7933C1.44404 13.1807 1.93072 12.694 2.54329 12.4403C3.00272 12.25 3.58515 12.25 4.75 12.25C5.91485 12.25 6.49728 12.25 6.95671 12.4403C7.56928 12.694 8.05596 13.1807 8.3097 13.7933C8.5 14.2527 8.5 14.8351 8.5 16C8.5 17.1649 8.5 17.7473 8.3097 18.2067C8.05596 18.8193 7.56928 19.306 6.95671 19.5597C6.49728 19.75 5.91485 19.75 4.75 19.75Z" stroke="#5783BC" stroke-width="1.5"/>
<path d="M17.25 12.25C16.0851 12.25 15.5027 12.25 15.0433 12.0597C14.4307 11.806 13.944 11.3193 13.6903 10.7067C13.5 10.2473 13.5 9.66485 13.5 8.5C13.5 7.33515 13.5 6.75272 13.6903 6.29329C13.944 5.68072 14.4307 5.19404 15.0433 4.9403C15.5027 4.75 16.0851 4.75 17.25 4.75C18.4149 4.75 18.9973 4.75 19.4567 4.9403C20.0693 5.19404 20.556 5.68072 20.8097 6.29329C21 6.75272 21 7.33515 21 8.5C21 9.66485 21 10.2473 20.8097 10.7067C20.556 11.3193 20.0693 11.806 19.4567 12.0597C18.9973 12.25 18.4149 12.25 17.25 12.25Z" stroke="#5783BC" stroke-width="1.5"/>
</svg>
