<svg width="22" height="20" viewBox="0 0 22 20" fill="none" xmlns="http://www.w3.org/2000/svg">
<path d="M20.544 9.04498C20.848 9.4713 21 9.68447 21 10C21 10.3155 20.848 10.5287 20.544 10.955C19.1779 12.8706 15.6892 17 11 17C6.31078 17 2.8221 12.8706 1.45604 10.955C1.15201 10.5287 1 10.3155 1 10C1 9.68447 1.15201 9.47131 1.45604 9.04499C2.8221 7.12944 6.31078 3 11 3C15.6892 3 19.1779 7.12944 20.544 9.04498Z" stroke="#BCD1EB" stroke-width="1.5"/>
<path d="M14.0005 10C14.0005 8.34315 12.6573 7 11.0005 7C9.34363 7 8.00049 8.34315 8.00049 10C8.00049 11.6569 9.34363 13 11.0005 13C12.6573 13 14.0005 11.6569 14.0005 10Z" stroke="#BCD1EB" stroke-width="1.5"/>
<path d="M20 1L2 19" stroke="#BCD1EB" stroke-width="1.5"/>
</svg>
