<svg width="760" height="381" viewBox="0 0 760 381" fill="none" xmlns="http://www.w3.org/2000/svg">
<mask id="mask0_286_1197" style="mask-type:alpha" maskUnits="userSpaceOnUse" x="0" y="0" width="760" height="381">
<rect width="760" height="381" fill="#D9D9D9"/>
</mask>
<g mask="url(#mask0_286_1197)">
<path d="M331.462 30.0381C307.309 44.3663 286.43 56.6476 285.202 57.8757C283.974 59.1038 340.468 93.0821 410.062 133.201L537.379 206.07L538.197 354.674L539.425 502.869L586.504 475.44L633.582 447.603V298.589V149.576L507.494 76.7071C437.9 36.5881 380.178 3.83793 378.54 4.24731C376.903 4.24731 356.025 16.1192 331.462 30.0381Z" fill="#CADFFB"/>
<path d="M123.088 150.395L-2.59062 222.854L-3 278.939C-3 310.052 -2.18125 335.433 -1.36249 335.433C-0.543737 335.433 57.1784 302.683 126.363 262.564L252.861 190.104L375.674 260.926C443.221 300.227 500.943 332.977 503.809 334.205C507.903 335.842 508.721 324.38 507.903 279.758L506.674 223.264L380.586 150.395C310.992 110.276 253.27 77.5255 251.633 77.9349C249.995 77.9349 192.273 110.685 123.088 150.395Z" fill="#CADFFB"/>
<path d="M663.465 319.058L662.237 467.252L536.558 539.303C467.374 579.422 410.47 612.581 410.47 613.809C410.47 615.037 431.758 628.137 457.958 643.284L505.446 671.122L633.99 597.025L762.535 522.518V374.733V226.948L736.744 212.21C722.825 204.023 700.719 191.332 688.028 183.963L664.284 170.863L663.465 319.058Z" fill="#CADFFB"/>
<path d="M123.088 297.77L-3 370.23V519.653L-2.59062 669.075L45.3065 696.094L93.2036 723.113L94.4318 574.918L95.2505 426.315L221.339 353.855C290.523 313.736 347.427 280.576 348.246 280.167C350.292 278.529 256.954 224.901 252.451 224.901C250.404 224.901 192.273 257.651 123.088 297.77Z" fill="#CADFFB"/>
</g>
</svg>
